<?xml version="1.0" standalone="no"?>
<!DOCTYPE svg PUBLIC "-//W3C//DTD SVG 20010904//EN"
 "http://www.w3.org/TR/2001/REC-SVG-20010904/DTD/svg10.dtd">
<svg version="1.0" xmlns="http://www.w3.org/2000/svg"
 width="1105.000000pt" height="662.000000pt" viewBox="0 0 1105.000000 662.000000"
 preserveAspectRatio="xMidYMid meet">

<g transform="translate(0.000000,662.000000) scale(0.100000,-0.100000)"
fill="#000000" stroke="none">
<path 
style="fill:#f9f9f9;stroke-width:0.799785"
d="M5474 6610 c-177 -32 -309 -102 -439 -234 -105 -106 -160 -197 -202
-331 l-28 -90 0 -2535 0 -2535 28 -90 c43 -137 97 -225 207 -335 111 -111 199
-165 335 -206 79 -24 107 -27 225 -27 118 0 146 3 225 27 136 41 224 95 335
206 110 110 164 198 207 335 l28 90 0 2535 0 2535 -28 90 c-43 137 -97 225
-207 335 -111 111 -201 166 -335 205 -101 29 -263 41 -351 25z m232 -545 c48
-20 110 -81 136 -133 l23 -47 0 -2465 0 -2465 -23 -47 c-27 -54 -88 -113 -141
-136 -47 -20 -155 -20 -202 0 -53 23 -114 82 -141 136 l-23 47 -3 2435 c-1
1701 1 2451 8 2487 33 159 213 252 366 188z"/>
<path
style="fill:#f9f9f9;stroke-width:0.799785" 
d="M8021 6113 c-40 -132 -49 -166 -67 -233 -9 -36 -25 -94 -35 -130 -21
-71 -36 -124 -69 -245 -31 -113 -47 -171 -69 -245 -11 -36 -27 -94 -36 -130
-10 -36 -25 -92 -35 -125 -11 -33 -25 -85 -33 -115 -8 -30 -23 -84 -32 -120
-9 -36 -25 -92 -35 -125 -11 -33 -26 -87 -35 -120 -8 -33 -24 -89 -34 -125
-11 -36 -26 -90 -34 -120 -9 -30 -25 -86 -36 -125 -11 -38 -27 -97 -36 -130
-9 -33 -24 -87 -35 -120 -10 -33 -25 -89 -35 -125 -9 -36 -25 -94 -36 -130
-102 -346 -116 -443 -85 -590 15 -73 79 -220 95 -220 6 0 11 -6 11 -13 0 -18
147 -147 167 -147 4 0 26 -9 47 -21 60 -32 170 -39 623 -39 l421 0 -8 -32 c-5
-18 -16 -67 -25 -108 -9 -41 -25 -111 -35 -155 -10 -44 -26 -114 -35 -155 -9
-41 -25 -106 -35 -145 -9 -38 -25 -106 -35 -150 -9 -44 -25 -111 -35 -150 -9
-38 -25 -106 -34 -150 -10 -44 -26 -112 -37 -152 -10 -39 -19 -79 -19 -89 0
-9 -6 -40 -14 -68 -8 -28 -22 -87 -32 -131 -9 -44 -24 -109 -34 -145 -10 -36
-21 -84 -24 -107 l-6 -43 400 0 c333 0 400 2 400 14 0 7 7 20 16 27 9 7 20 22
25 34 5 11 17 32 27 47 9 15 73 118 141 230 68 112 127 205 132 206 5 2 9 10
9 17 0 8 6 20 13 27 7 7 18 24 25 38 7 14 21 39 32 55 10 17 25 40 32 52 11
20 131 212 180 291 9 15 27 46 39 70 13 23 30 50 40 60 9 10 20 28 23 40 4 12
12 22 17 22 5 0 9 6 9 13 0 8 9 24 20 37 11 13 20 29 20 37 0 7 4 13 9 13 5 0
13 9 16 21 4 12 14 30 23 40 9 10 27 39 41 63 24 42 185 304 223 364 10 15 22
37 28 50 5 13 17 30 25 38 8 9 15 22 15 30 0 8 4 14 9 14 5 0 13 10 17 23 4
12 10 24 14 27 4 3 63 96 131 208 68 112 132 215 141 230 10 15 22 37 27 49 5
11 15 24 21 28 6 4 16 17 21 28 13 29 32 62 46 78 23 29 83 149 83 167 0 10 4
22 8 28 19 21 32 97 32 187 0 182 -77 343 -223 465 -15 12 -32 22 -38 22 -6 0
-23 9 -38 19 -15 11 -53 27 -86 37 -52 15 -117 18 -512 21 -249 3 -453 6 -453
8 0 2 5 16 11 32 17 41 86 238 110 313 11 36 29 85 39 110 10 25 26 70 36 100
9 30 24 75 34 100 19 47 65 184 80 235 5 17 21 62 35 100 15 39 30 84 35 100
5 17 21 62 35 100 15 39 31 84 35 100 10 35 47 141 59 170 14 34 32 88 48 140
9 28 19 55 24 60 4 6 11 34 15 63 l7 52 -970 0 -969 0 -23 -77z m1374 -380
c-4 -10 -11 -31 -15 -48 -7 -27 -27 -84 -59 -170 -19 -51 -62 -179 -71 -210
-5 -16 -21 -61 -35 -100 -15 -38 -31 -83 -35 -100 -10 -35 -47 -141 -59 -170
-12 -30 -31 -85 -47 -135 -8 -25 -18 -54 -23 -65 -5 -11 -12 -29 -14 -40 -6
-23 -44 -131 -56 -160 -5 -11 -19 -51 -31 -90 -12 -38 -27 -83 -35 -100 -7
-16 -22 -59 -33 -95 -25 -78 -52 -158 -63 -185 -5 -11 -15 -39 -23 -62 l-14
-43 732 0 731 0 32 -28 c23 -20 32 -36 33 -62 4 -64 0 -88 -14 -102 -7 -8 -17
-24 -20 -36 -4 -12 -12 -22 -17 -22 -5 0 -9 -6 -9 -13 0 -8 -9 -24 -20 -37
-11 -13 -20 -29 -20 -37 0 -7 -4 -13 -9 -13 -5 0 -13 -10 -17 -22 -4 -13 -10
-25 -13 -28 -3 -3 -40 -60 -81 -128 -41 -68 -83 -135 -92 -150 -10 -15 -22
-36 -28 -47 -21 -38 -36 -63 -50 -80 -17 -20 -35 -51 -50 -83 -5 -13 -17 -30
-25 -38 -8 -9 -15 -22 -15 -30 0 -8 -4 -14 -9 -14 -5 0 -13 -10 -17 -22 -4
-13 -10 -25 -14 -28 -6 -4 -212 -337 -268 -433 -7 -12 -21 -34 -30 -49 -9 -15
-73 -118 -141 -230 -68 -112 -127 -204 -132 -206 -5 -2 -9 -10 -9 -17 0 -8 -6
-20 -13 -27 -7 -7 -18 -24 -25 -38 -7 -14 -21 -38 -32 -55 -11 -16 -24 -40
-29 -52 -5 -11 -15 -24 -21 -28 -6 -4 -16 -17 -21 -28 -5 -12 -18 -35 -28 -52
-10 -16 -58 -95 -106 -175 -48 -80 -91 -147 -95 -150 -4 -3 -10 -15 -14 -27
-4 -13 -12 -23 -17 -23 -5 0 -9 -6 -9 -13 0 -21 -35 -57 -55 -57 -19 0 -18 24
5 115 27 108 49 204 65 280 10 44 26 112 35 150 10 39 26 106 35 150 10 44 26
112 35 150 10 39 26 106 35 150 18 84 32 145 60 260 10 39 21 88 25 110 4 22
13 63 20 90 7 28 20 84 30 125 29 121 42 174 47 193 5 16 -33 17 -703 17 -684
0 -710 1 -738 19 -52 35 -69 92 -47 165 5 17 16 56 24 86 8 30 25 89 37 130
12 41 28 100 36 130 8 30 24 84 34 120 11 36 27 92 35 125 9 33 24 89 35 125
10 36 26 90 34 120 8 30 25 89 37 130 11 41 27 98 34 125 18 66 39 143 66 235
11 41 28 100 36 130 8 30 23 84 34 120 10 36 25 92 34 125 10 33 25 87 35 120
10 33 26 89 35 125 9 36 25 92 35 125 10 33 25 85 33 115 39 149 51 190 70
248 l21 62 524 0 c495 0 524 -1 517 -17z"/>
<path 
style="fill:#f9f9f9;stroke-width:0.799785"
d="M3050 5006 c-340 -72 -587 -330 -639 -666 -9 -56 -11 -512 -9 -1765
3 -1545 5 -1695 20 -1745 67 -220 173 -368 345 -480 136 -89 259 -125 433
-125 174 0 297 36 433 125 174 113 285 269 345 485 16 55 17 205 17 1785 0
1580 -1 1730 -17 1785 -29 106 -58 172 -108 248 -112 173 -271 287 -480 344
-78 21 -260 26 -340 9z"/>
<path 
style="fill:#f9f9f9;stroke-width:0.799785"
d="M650 3406 c-340 -72 -587 -329 -640 -666 -8 -55 -10 -317 -8 -965 3
-793 5 -896 20 -945 66 -219 173 -368 345 -480 136 -89 259 -125 433 -125 174
0 297 36 433 125 174 113 285 269 345 485 15 54 17 152 17 985 0 833 -2 931
-17 985 -29 106 -58 172 -108 248 -112 173 -271 287 -480 344 -78 21 -260 26
-340 9z"/>
</g>
</svg>
